<?xml version="1.0" encoding="UTF-8" standalone="no"?>
<!DOCTYPE svg PUBLIC "-//W3C//DTD SVG 1.1//EN"
 "http://www.w3.org/Graphics/SVG/1.1/DTD/svg11.dtd">
<!-- Generated by graphviz version 14.1.5 (20260411.2331)
 -->
<!-- Title: AttentionLSTM Pages: 1 -->
<svg width="1620pt" height="3143pt"
 viewBox="0.00 0.00 1620.00 3143.00" xmlns="http://www.w3.org/2000/svg" xmlns:xlink="http://www.w3.org/1999/xlink">
<g id="graph0" class="graph" transform="scale(4.16667 4.16667) rotate(0) translate(14.4 739.9)">
<title>AttentionLSTM</title>
<polygon fill="white" stroke="none" points="-14.4,14.4 -14.4,-739.9 374.4,-739.9 374.4,14.4 -14.4,14.4"/>
<text xml:space="preserve" text-anchor="middle" x="180" y="-7.25" font-family="Noto Sans SC" font-size="10.00">Attention&#45;LSTM 架构: 时序编码 → 注意力聚合 → 回归解码</text>
<g id="clust1" class="cluster">
<title>cluster_s1</title>
<path fill="#edf1f7" stroke="#8fa4be" d="M82,-583.25C82,-583.25 278,-583.25 278,-583.25 284,-583.25 290,-589.25 290,-595.25 290,-595.25 290,-705.5 290,-705.5 290,-711.5 284,-717.5 278,-717.5 278,-717.5 82,-717.5 82,-717.5 76,-717.5 70,-711.5 70,-705.5 70,-705.5 70,-595.25 70,-595.25 70,-589.25 76,-583.25 82,-583.25"/>
<text xml:space="preserve" text-anchor="middle" x="180" y="-704.95" font-family="Noto Sans SC" font-size="9.00">阶段一 &#160;时序编码</text>
</g>
<g id="clust2" class="cluster">
<title>cluster_s2</title>
<path fill="#edf5f2" stroke="#7fada0" d="M68,-363C68,-363 292,-363 292,-363 298,-363 304,-369 304,-375 304,-375 304,-546.25 304,-546.25 304,-552.25 298,-558.25 292,-558.25 292,-558.25 68,-558.25 68,-558.25 62,-558.25 56,-552.25 56,-546.25 56,-546.25 56,-375 56,-375 56,-369 62,-363 68,-363"/>
<text xml:space="preserve" text-anchor="middle" x="180" y="-545.7" font-family="Noto Sans SC" font-size="9.00">阶段二 &#160;注意力聚合</text>
</g>
<g id="clust3" class="cluster">
<title>cluster_s3</title>
<path fill="#fbf6ee" stroke="#d4b896" d="M82,-142.75C82,-142.75 278,-142.75 278,-142.75 284,-142.75 290,-148.75 290,-154.75 290,-154.75 290,-326 290,-326 290,-332 284,-338 278,-338 278,-338 82,-338 82,-338 76,-338 70,-332 70,-326 70,-326 70,-154.75 70,-154.75 70,-148.75 76,-142.75 82,-142.75"/>
<text xml:space="preserve" text-anchor="middle" x="180" y="-325.45" font-family="Noto Sans SC" font-size="9.00">阶段三 &#160;回归解码</text>
</g>
<!-- input -->
<g id="node1" class="node">
<title>input</title>
<path fill="#e8edf2" stroke="#90a4ae" stroke-width="0.6" d="M268.8,-689.25C268.8,-689.25 91.2,-689.25 91.2,-689.25 85.2,-689.25 79.2,-683.25 79.2,-677.25 79.2,-677.25 79.2,-665.25 79.2,-665.25 79.2,-659.25 85.2,-653.25 91.2,-653.25 91.2,-653.25 268.8,-653.25 268.8,-653.25 274.8,-653.25 280.8,-659.25 280.8,-665.25 280.8,-665.25 280.8,-677.25 280.8,-677.25 280.8,-683.25 274.8,-689.25 268.8,-689.25"/>
<text xml:space="preserve" text-anchor="middle" x="180" y="-668.9" font-family="Noto Sans SC" font-size="8.00">输入 [B×T×17] (6动态+11独热)</text>
</g>
<!-- lstm -->
<g id="node2" class="node">
<title>lstm</title>
<path fill="#cddaf0" stroke="#7b9bc2" stroke-width="0.6" d="M268.8,-628.25C268.8,-628.25 91.2,-628.25 91.2,-628.25 85.2,-628.25 79.2,-622.25 79.2,-616.25 79.2,-616.25 79.2,-604.25 79.2,-604.25 79.2,-598.25 85.2,-592.25 91.2,-592.25 91.2,-592.25 268.8,-592.25 268.8,-592.25 274.8,-592.25 280.8,-598.25 280.8,-604.25 280.8,-604.25 280.8,-616.25 280.8,-616.25 280.8,-622.25 274.8,-628.25 268.8,-628.25"/>
<text xml:space="preserve" text-anchor="middle" x="180" y="-607.9" font-family="Noto Sans SC" font-size="8.00">双层LSTM (17→256→256) &#160;→ &#160;隐状态 [B×T×256]</text>
</g>
<!-- input&#45;&gt;lstm -->
<g id="edge1" class="edge">
<title>input&#45;&gt;lstm</title>
<path fill="none" stroke="#556270" stroke-width="0.9" d="M180,-653.18C180,-648.94 180,-644.28 180,-639.65"/>
<polygon fill="#556270" stroke="#556270" stroke-width="0.9" points="183.5,-639.84 180,-629.84 176.5,-639.84 183.5,-639.84"/>
<text xml:space="preserve" text-anchor="middle" x="192.38" y="-638.6" font-family="Noto Sans SC" font-size="7.00" fill="#607d8b"> [B,T,17] </text>
</g>
<!-- mha -->
<g id="node3" class="node">
<title>mha</title>
<path fill="#c5e0d8" stroke="#6baa9a" stroke-width="0.6" d="M283.2,-530C283.2,-530 76.8,-530 76.8,-530 70.8,-530 64.8,-524 64.8,-518 64.8,-518 64.8,-506 64.8,-506 64.8,-500 70.8,-494 76.8,-494 76.8,-494 283.2,-494 283.2,-494 289.2,-494 295.2,-500 295.2,-506 295.2,-506 295.2,-518 295.2,-518 295.2,-524 289.2,-530 283.2,-530"/>
<text xml:space="preserve" text-anchor="middle" x="180" y="-509.65" font-family="Noto Sans SC" font-size="8.00">多头自注意力 (4头, dk=64) &#160;Q=K=V=LSTM_out &#160;→ &#160;[B×T×256]</text>
</g>
<!-- lstm&#45;&gt;mha -->
<g id="edge6" class="edge">
<title>lstm&#45;&gt;mha</title>
<path fill="none" stroke="#556270" stroke-width="0.9" d="M180,-592.04C180,-577.94 180,-557.71 180,-541.24"/>
<polygon fill="#556270" stroke="#556270" stroke-width="0.9" points="183.5,-541.42 180,-531.42 176.5,-541.42 183.5,-541.42"/>
<text xml:space="preserve" text-anchor="middle" x="195.75" y="-568.6" font-family="Noto Sans SC" font-size="7.00" fill="#607d8b"> &#160;[B,T,256] &#160;</text>
</g>
<!-- add -->
<g id="node4" class="node">
<title>add</title>
<path fill="#daebe6" stroke="#7fada0" stroke-width="0.6" d="M283.2,-469C283.2,-469 76.8,-469 76.8,-469 70.8,-469 64.8,-463 64.8,-457 64.8,-457 64.8,-445 64.8,-445 64.8,-439 70.8,-433 76.8,-433 76.8,-433 283.2,-433 283.2,-433 289.2,-433 295.2,-439 295.2,-445 295.2,-445 295.2,-457 295.2,-457 295.2,-463 289.2,-469 283.2,-469"/>
<text xml:space="preserve" text-anchor="middle" x="180" y="-448.65" font-family="Noto Sans SC" font-size="8.00">残差连接 &#160;out ⊕ attn_out &#160;→ &#160;[B×T×256]</text>
</g>
<!-- lstm&#45;&gt;add -->
<g id="edge7" class="edge">
<title>lstm&#45;&gt;add</title>
<path fill="none" stroke="#556270" stroke-width="0.8" stroke-dasharray="1,5" d="M222.32,-591.98C258.58,-577.19 305,-558.25 305,-558.25 305,-558.25 305,-494 305,-494 305,-494 273.3,-483.35 241.82,-472.77"/>
<polygon fill="#556270" stroke="#556270" stroke-width="0.8" points="242.94,-469.46 232.35,-469.59 240.72,-476.09 242.94,-469.46"/>
<text xml:space="preserve" text-anchor="middle" x="321.5" y="-509.85" font-family="Noto Sans SC" font-size="7.00" fill="#90a4ae"> &#160;跳跃连接 &#160;</text>
</g>
<!-- mha&#45;&gt;add -->
<g id="edge2" class="edge">
<title>mha&#45;&gt;add</title>
<path fill="none" stroke="#556270" stroke-width="0.9" d="M180,-493.93C180,-489.69 180,-485.03 180,-480.4"/>
<polygon fill="#556270" stroke="#556270" stroke-width="0.9" points="183.5,-480.59 180,-470.59 176.5,-480.59 183.5,-480.59"/>
<text xml:space="preserve" text-anchor="middle" x="194.25" y="-479.35" font-family="Noto Sans SC" font-size="7.00" fill="#607d8b"> [B,T,256] </text>
</g>
<!-- ln -->
<g id="node5" class="node">
<title>ln</title>
<path fill="#daebe6" stroke="#7fada0" stroke-width="0.6" d="M283.2,-408C283.2,-408 76.8,-408 76.8,-408 70.8,-408 64.8,-402 64.8,-396 64.8,-396 64.8,-384 64.8,-384 64.8,-378 70.8,-372 76.8,-372 76.8,-372 283.2,-372 283.2,-372 289.2,-372 295.2,-378 295.2,-384 295.2,-384 295.2,-396 295.2,-396 295.2,-402 289.2,-408 283.2,-408"/>
<text xml:space="preserve" text-anchor="middle" x="180" y="-387.65" font-family="Noto Sans SC" font-size="8.00">层归一化 (256维) &#160;→ &#160;[B×T×256]</text>
</g>
<!-- add&#45;&gt;ln -->
<g id="edge3" class="edge">
<title>add&#45;&gt;ln</title>
<path fill="none" stroke="#556270" stroke-width="0.9" d="M180,-432.93C180,-428.69 180,-424.03 180,-419.4"/>
<polygon fill="#556270" stroke="#556270" stroke-width="0.9" points="183.5,-419.59 180,-409.59 176.5,-419.59 183.5,-419.59"/>
<text xml:space="preserve" text-anchor="middle" x="194.25" y="-418.35" font-family="Noto Sans SC" font-size="7.00" fill="#607d8b"> [B,T,256] </text>
</g>
<!-- fc1 -->
<g id="node6" class="node">
<title>fc1</title>
<path fill="#f2e2cc" stroke="#c9a87c" stroke-width="0.6" d="M268.8,-309.75C268.8,-309.75 91.2,-309.75 91.2,-309.75 85.2,-309.75 79.2,-303.75 79.2,-297.75 79.2,-297.75 79.2,-285.75 79.2,-285.75 79.2,-279.75 85.2,-273.75 91.2,-273.75 91.2,-273.75 268.8,-273.75 268.8,-273.75 274.8,-273.75 280.8,-279.75 280.8,-285.75 280.8,-285.75 280.8,-297.75 280.8,-297.75 280.8,-303.75 274.8,-309.75 268.8,-309.75"/>
<text xml:space="preserve" text-anchor="middle" x="180" y="-289.4" font-family="Noto Sans SC" font-size="8.00">FC+ReLU (256→128) &#160;→ &#160;[B×T×128]</text>
</g>
<!-- ln&#45;&gt;fc1 -->
<g id="edge8" class="edge">
<title>ln&#45;&gt;fc1</title>
<path fill="none" stroke="#556270" stroke-width="0.9" d="M180,-371.79C180,-357.69 180,-337.46 180,-320.99"/>
<polygon fill="#556270" stroke="#556270" stroke-width="0.9" points="183.5,-321.17 180,-311.17 176.5,-321.17 183.5,-321.17"/>
<text xml:space="preserve" text-anchor="middle" x="195.75" y="-348.35" font-family="Noto Sans SC" font-size="7.00" fill="#607d8b"> &#160;[B,T,256] &#160;</text>
</g>
<!-- do -->
<g id="node7" class="node">
<title>do</title>
<path fill="#f2e2cc" stroke="#c9a87c" stroke-width="0.6" d="M268.8,-248.75C268.8,-248.75 91.2,-248.75 91.2,-248.75 85.2,-248.75 79.2,-242.75 79.2,-236.75 79.2,-236.75 79.2,-224.75 79.2,-224.75 79.2,-218.75 85.2,-212.75 91.2,-212.75 91.2,-212.75 268.8,-212.75 268.8,-212.75 274.8,-212.75 280.8,-218.75 280.8,-224.75 280.8,-224.75 280.8,-236.75 280.8,-236.75 280.8,-242.75 274.8,-248.75 268.8,-248.75"/>
<text xml:space="preserve" text-anchor="middle" x="180" y="-228.4" font-family="Noto Sans SC" font-size="8.00">Dropout (p=0.05) &#160;→ &#160;[B×T×128]</text>
</g>
<!-- fc1&#45;&gt;do -->
<g id="edge4" class="edge">
<title>fc1&#45;&gt;do</title>
<path fill="none" stroke="#556270" stroke-width="0.9" d="M180,-273.68C180,-269.44 180,-264.78 180,-260.15"/>
<polygon fill="#556270" stroke="#556270" stroke-width="0.9" points="183.5,-260.34 180,-250.34 176.5,-260.34 183.5,-260.34"/>
<text xml:space="preserve" text-anchor="middle" x="194.25" y="-259.1" font-family="Noto Sans SC" font-size="7.00" fill="#607d8b"> [B,T,128] </text>
</g>
<!-- fc2 -->
<g id="node8" class="node">
<title>fc2</title>
<path fill="#f0dcc4" stroke="#c1955a" stroke-width="0.6" d="M268.8,-187.75C268.8,-187.75 91.2,-187.75 91.2,-187.75 85.2,-187.75 79.2,-181.75 79.2,-175.75 79.2,-175.75 79.2,-163.75 79.2,-163.75 79.2,-157.75 85.2,-151.75 91.2,-151.75 91.2,-151.75 268.8,-151.75 268.8,-151.75 274.8,-151.75 280.8,-157.75 280.8,-163.75 280.8,-163.75 280.8,-175.75 280.8,-175.75 280.8,-181.75 274.8,-187.75 268.8,-187.75"/>
<text xml:space="preserve" text-anchor="middle" x="180" y="-167.4" font-family="Noto Sans SC" font-size="8.00">输出层 (128→2) &#160;→ &#160;[B×T×2]</text>
</g>
<!-- do&#45;&gt;fc2 -->
<g id="edge5" class="edge">
<title>do&#45;&gt;fc2</title>
<path fill="none" stroke="#556270" stroke-width="0.9" d="M180,-212.68C180,-208.44 180,-203.78 180,-199.15"/>
<polygon fill="#556270" stroke="#556270" stroke-width="0.9" points="183.5,-199.34 180,-189.34 176.5,-199.34 183.5,-199.34"/>
<text xml:space="preserve" text-anchor="middle" x="194.25" y="-198.1" font-family="Noto Sans SC" font-size="7.00" fill="#607d8b"> [B,T,128] </text>
</g>
<!-- output -->
<g id="node9" class="node">
<title>output</title>
<path fill="#f5ede0" stroke="#c9a87c" stroke-width="0.6" d="M348,-117.75C348,-117.75 12,-117.75 12,-117.75 6,-117.75 0,-111.75 0,-105.75 0,-105.75 0,-93.75 0,-93.75 0,-87.75 6,-81.75 12,-81.75 12,-81.75 348,-81.75 348,-81.75 354,-81.75 360,-87.75 360,-93.75 360,-93.75 360,-105.75 360,-105.75 360,-111.75 354,-117.75 348,-117.75"/>
<text xml:space="preserve" text-anchor="middle" x="180" y="-97.4" font-family="Noto Sans SC" font-size="8.00">双目标预测输出: 推力(×8.0→N) | 流量(×2000→mg/s) | 比冲(在线推导) &#160;[B×T×2]</text>
</g>
<!-- fc2&#45;&gt;output -->
<g id="edge9" class="edge">
<title>fc2&#45;&gt;output</title>
<path fill="none" stroke="#556270" stroke-width="0.9" d="M180,-151.59C180,-144.69 180,-136.56 180,-128.84"/>
<polygon fill="#556270" stroke="#556270" stroke-width="0.9" points="183.5,-129.03 180,-119.03 176.5,-129.03 183.5,-129.03"/>
<text xml:space="preserve" text-anchor="middle" x="192" y="-128.1" font-family="Noto Sans SC" font-size="7.00" fill="#607d8b"> &#160;[B,T,2] &#160;</text>
</g>
<!-- loss -->
<g id="node10" class="node">
<title>loss</title>
<path fill="#fff8f0" stroke="#d4a76a" stroke-width="0.6" stroke-dasharray="5,2" d="M348,-56.75C348,-56.75 12,-56.75 12,-56.75 6,-56.75 0,-50.75 0,-44.75 0,-44.75 0,-32.75 0,-32.75 0,-26.75 6,-20.75 12,-20.75 12,-20.75 348,-20.75 348,-20.75 354,-20.75 360,-26.75 360,-32.75 360,-32.75 360,-44.75 360,-44.75 360,-50.75 354,-56.75 348,-56.75"/>
<text xml:space="preserve" text-anchor="middle" x="180" y="-36.4" font-family="Noto Sans SC" font-size="8.00">加权MSE损失: 0.7×MSE(thrust) + 0.3×MSE(mfr) &#160;| &#160;RMSE: 推力 0.083N, 流量 49.1mg/s &#160;| &#160;~90万参数</text>
</g>
<!-- output&#45;&gt;loss -->
<g id="edge10" class="edge">
<title>output&#45;&gt;loss</title>
<path fill="none" stroke="#556270" stroke-width="0.7" stroke-dasharray="5,2" d="M180,-81.68C180,-77.32 180,-72.51 180,-67.75"/>
<polygon fill="#556270" stroke="#556270" stroke-width="0.7" points="183.5,-68.04 180,-58.04 176.5,-68.04 183.5,-68.04"/>
<text xml:space="preserve" text-anchor="middle" x="189.75" y="-67.1" font-family="Noto Sans SC" font-size="7.00" fill="#c9a87c"> &#160;训练 &#160;</text>
</g>
</g>
</svg>
